# xmcd
#
# Track frame offsets:
#	150
#	15998
#	26087
#	39554
#	54458
#	68452
#	82139
#	95871
#	111109
#	125672
#	140721
#	153291
#	166989
#	181516
#
# Disc length: 2625 seconds
#
# Revision: 0
# Processed by: cddbd v1.5.2PL0 Copyright (c) Steve Scherf et al.
# Submitted via: EasyCDDAExtractor 11.5.0.1
#
DISCID=b40a3f0e
DTITLE=Frank Sinatra - I've got you under my skin
DYEAR=2007
DGENRE=
TTITLE0=I've got you under my skin
TTITLE1=Love and Marriage
TTITLE2=The lady is a tramp
TTITLE3=Embraceable you
TTITLE4=I dream of you
TTITLE5=You'll never know
TTITLE6=If you are but a dream
TTITLE7=Nancy
TTITLE8=Everything happens to me
TTITLE9=She's funny that way
TTITLE10=I don't know why
TTITLE11=I should care
TTITLE12=My melancholy baby
TTITLE13=There's no you
EXTD=
EXTT0=
EXTT1=
EXTT2=
EXTT3=
EXTT4=
EXTT5=
EXTT6=
EXTT7=
EXTT8=
EXTT9=
EXTT10=
EXTT11=
EXTT12=
EXTT13=
PLAYORDER=
